<?xml version="1.0" encoding="UTF-8" standalone="no"?>
<!DOCTYPE svg PUBLIC "-//W3C//DTD SVG 1.1//EN"
 "http://www.w3.org/Graphics/SVG/1.1/DTD/svg11.dtd">
<!-- Generated by graphviz version 5.0.0 (20220707.1540)
 -->
<!-- Title: StorageDiagram Pages: 1 -->
<svg width="1651pt" height="469pt"
 viewBox="0.00 0.00 1650.64 469.00" xmlns="http://www.w3.org/2000/svg" xmlns:xlink="http://www.w3.org/1999/xlink">
<g id="graph0" class="graph" transform="scale(1 1) rotate(0) translate(4 465)">
<title>StorageDiagram</title>
<polygon fill="white" stroke="transparent" points="-4,4 -4,-465 1646.64,-465 1646.64,4 -4,4"/>
<!-- 4 -->
<g id="node1" class="node">
<title>4</title>
<polygon fill="#f2f2f2" stroke="black" points="0,-193.5 0,-441.5 527.68,-441.5 527.68,-193.5 0,-193.5"/>
<text text-anchor="middle" x="263.84" y="-424.9" font-family="Courier New" font-size="14.00">GasContract &lt;&lt;Contract&gt;&gt;</text>
<polyline fill="none" stroke="black" points="0,-416.7 527.68,-416.7 "/>
<text text-anchor="middle" x="24.8" y="-400.1" font-family="Courier New" font-size="14.00">slot</text>
<polyline fill="none" stroke="black" points="0,-391.9 49.61,-391.9 "/>
<text text-anchor="middle" x="24.8" y="-375.3" font-family="Courier New" font-size="14.00">0</text>
<polyline fill="none" stroke="black" points="0,-367.1 49.61,-367.1 "/>
<text text-anchor="middle" x="24.8" y="-350.5" font-family="Courier New" font-size="14.00">1</text>
<polyline fill="none" stroke="black" points="0,-342.3 49.61,-342.3 "/>
<text text-anchor="middle" x="24.8" y="-325.7" font-family="Courier New" font-size="14.00">2</text>
<polyline fill="none" stroke="black" points="0,-317.5 49.61,-317.5 "/>
<text text-anchor="middle" x="24.8" y="-300.9" font-family="Courier New" font-size="14.00">3</text>
<polyline fill="none" stroke="black" points="0,-292.7 49.61,-292.7 "/>
<text text-anchor="middle" x="24.8" y="-276.1" font-family="Courier New" font-size="14.00">4</text>
<polyline fill="none" stroke="black" points="0,-267.9 49.61,-267.9 "/>
<text text-anchor="middle" x="24.8" y="-251.3" font-family="Courier New" font-size="14.00">5</text>
<polyline fill="none" stroke="black" points="0,-243.1 49.61,-243.1 "/>
<text text-anchor="middle" x="24.8" y="-226.5" font-family="Courier New" font-size="14.00">6&#45;10</text>
<polyline fill="none" stroke="black" points="0,-218.3 49.61,-218.3 "/>
<text text-anchor="middle" x="24.8" y="-201.7" font-family="Courier New" font-size="14.00">11</text>
<polyline fill="none" stroke="black" points="49.61,-193.5 49.61,-416.7 "/>
<text text-anchor="middle" x="288.64" y="-400.1" font-family="Courier New" font-size="14.00">type: &lt;inherited contract&gt;.variable (bytes)</text>
<polyline fill="none" stroke="black" points="49.61,-391.9 527.68,-391.9 "/>
<text text-anchor="middle" x="143.82" y="-375.3" font-family="Courier New" font-size="14.00">unallocated (12)</text>
<polyline fill="none" stroke="black" points="238.03,-367.1 238.03,-391.9 "/>
<text text-anchor="middle" x="382.65" y="-375.3" font-family="Courier New" font-size="14.00">address: Ownable._owner (20)</text>
<polyline fill="none" stroke="black" points="49.61,-367.1 527.68,-367.1 "/>
<text text-anchor="middle" x="288.62" y="-350.5" font-family="Courier New" font-size="14.00">uint256: totalSupply (32)</text>
<polyline fill="none" stroke="black" points="49.61,-342.3 527.68,-342.3 "/>
<text text-anchor="middle" x="288.63" y="-325.7" font-family="Courier New" font-size="14.00">mapping(address=&gt;uint256): balances (32)</text>
<polyline fill="none" stroke="black" points="49.61,-317.5 527.68,-317.5 "/>
<text text-anchor="middle" x="288.53" y="-300.9" font-family="Courier New" font-size="14.00">mapping(address=&gt;Payment[]): payments (32)</text>
<polyline fill="none" stroke="black" points="49.61,-292.7 527.68,-292.7 "/>
<text text-anchor="middle" x="288.33" y="-276.1" font-family="Courier New" font-size="14.00">mapping(address=&gt;uint256): whitelist (32)</text>
<polyline fill="none" stroke="black" points="49.61,-267.9 527.68,-267.9 "/>
<text text-anchor="middle" x="288.33" y="-251.3" font-family="Courier New" font-size="14.00">mapping(address=&gt;bool): isAdmin (32)</text>
<polyline fill="none" stroke="black" points="49.61,-243.1 527.68,-243.1 "/>
<text text-anchor="middle" x="288.33" y="-226.5" font-family="Courier New" font-size="14.00">address[MAX_ADMINS]: administrators (160)</text>
<polyline fill="none" stroke="black" points="49.61,-218.3 527.68,-218.3 "/>
<text text-anchor="middle" x="288.64" y="-201.7" font-family="Courier New" font-size="14.00">mapping(address=&gt;ImportantStruct): whiteListStruct (32)</text>
</g>
<!-- 1 -->
<g id="node2" class="node">
<title>1</title>
<polygon fill="#f2f2f2" stroke="black" points="563.68,-336.5 563.68,-460.5 1642.64,-460.5 1642.64,-336.5 563.68,-336.5"/>
<text text-anchor="middle" x="1103.16" y="-443.9" font-family="Courier New" font-size="14.00">Payment &lt;&lt;Struct&gt;&gt;</text>
<polyline fill="none" stroke="black" points="563.68,-435.7 1642.64,-435.7 "/>
<text text-anchor="middle" x="588.48" y="-419.1" font-family="Courier New" font-size="14.00">slot</text>
<polyline fill="none" stroke="black" points="563.68,-410.9 613.29,-410.9 "/>
<text text-anchor="middle" x="588.48" y="-394.3" font-family="Courier New" font-size="14.00">0</text>
<polyline fill="none" stroke="black" points="563.68,-386.1 613.29,-386.1 "/>
<text text-anchor="middle" x="588.48" y="-369.5" font-family="Courier New" font-size="14.00">1</text>
<polyline fill="none" stroke="black" points="563.68,-361.3 613.29,-361.3 "/>
<text text-anchor="middle" x="588.48" y="-344.7" font-family="Courier New" font-size="14.00">2</text>
<polyline fill="none" stroke="black" points="613.29,-336.5 613.29,-435.7 "/>
<text text-anchor="middle" x="1127.96" y="-419.1" font-family="Courier New" font-size="14.00">type: variable (bytes)</text>
<polyline fill="none" stroke="black" points="613.29,-410.9 1642.64,-410.9 "/>
<text text-anchor="middle" x="684.3" y="-394.3" font-family="Courier New" font-size="14.00">unallocated (2)</text>
<polyline fill="none" stroke="black" points="755.31,-386.1 755.31,-410.9 "/>
<text text-anchor="middle" x="859.92" y="-394.3" font-family="Courier New" font-size="14.00">address: recipient (20)</text>
<polyline fill="none" stroke="black" points="964.54,-386.1 964.54,-410.9 "/>
<text text-anchor="middle" x="1077.56" y="-394.3" font-family="Courier New" font-size="14.00">bytes8: recipientName (8)</text>
<polyline fill="none" stroke="black" points="1190.57,-386.1 1190.57,-410.9 "/>
<text text-anchor="middle" x="1290.99" y="-394.3" font-family="Courier New" font-size="14.00">bool: adminUpdated (1)</text>
<polyline fill="none" stroke="black" points="1391.4,-386.1 1391.4,-410.9 "/>
<text text-anchor="middle" x="1517.02" y="-394.3" font-family="Courier New" font-size="14.00">PaymentType: paymentType (1)</text>
<polyline fill="none" stroke="black" points="613.29,-386.1 1642.64,-386.1 "/>
<text text-anchor="middle" x="1127.9" y="-369.5" font-family="Courier New" font-size="14.00">uint256: paymentID (32)</text>
<polyline fill="none" stroke="black" points="613.29,-361.3 1642.64,-361.3 "/>
<text text-anchor="middle" x="1127.8" y="-344.7" font-family="Courier New" font-size="14.00">uint256: amount (32)</text>
</g>
<!-- 4&#45;&gt;1 -->
<g id="edge1" class="edge">
<title>4:10&#45;&gt;1</title>
<path fill="none" stroke="black" d="M527.68,-305.5C546.2,-305.5 546.16,-320.49 563.68,-326.5 570.66,-328.89 577.71,-331.21 584.83,-333.45"/>
<polygon fill="black" stroke="black" points="583.99,-336.85 594.57,-336.45 586.05,-330.16 583.99,-336.85"/>
</g>
<!-- 2 -->
<g id="node3" class="node">
<title>2</title>
<polygon fill="#f2f2f2" stroke="black" points="906.13,-143.7 906.13,-317.3 1300.19,-317.3 1300.19,-143.7 906.13,-143.7"/>
<text text-anchor="middle" x="1103.16" y="-300.7" font-family="Courier New" font-size="14.00">address[MAX_ADMINS]: administrators &lt;&lt;Array&gt;&gt;</text>
<polyline fill="none" stroke="black" points="906.13,-292.5 1300.19,-292.5 "/>
<text text-anchor="middle" x="949.93" y="-275.9" font-family="Courier New" font-size="14.00">slot</text>
<polyline fill="none" stroke="black" points="906.13,-267.7 993.74,-267.7 "/>
<text text-anchor="middle" x="949.93" y="-251.1" font-family="Courier New" font-size="14.00">6</text>
<polyline fill="none" stroke="black" points="906.13,-242.9 993.74,-242.9 "/>
<text text-anchor="middle" x="949.93" y="-226.3" font-family="Courier New" font-size="14.00">7</text>
<polyline fill="none" stroke="black" points="906.13,-218.1 993.74,-218.1 "/>
<text text-anchor="middle" x="949.93" y="-201.5" font-family="Courier New" font-size="14.00">8</text>
<polyline fill="none" stroke="black" points="906.13,-193.3 993.74,-193.3 "/>
<text text-anchor="middle" x="949.93" y="-176.7" font-family="Courier New" font-size="14.00">9</text>
<polyline fill="none" stroke="black" points="906.13,-168.5 993.74,-168.5 "/>
<text text-anchor="middle" x="949.93" y="-151.9" font-family="Courier New" font-size="14.00">10</text>
<polyline fill="none" stroke="black" points="993.74,-143.7 993.74,-292.5 "/>
<text text-anchor="middle" x="1146.85" y="-275.9" font-family="Courier New" font-size="14.00">type: variable (bytes)</text>
<polyline fill="none" stroke="black" points="993.74,-267.7 1299.97,-267.7 "/>
<text text-anchor="middle" x="1078.45" y="-251.1" font-family="Courier New" font-size="14.00">unallocated (12)</text>
<polyline fill="none" stroke="black" points="1163.16,-242.9 1163.16,-267.7 "/>
<text text-anchor="middle" x="1231.57" y="-251.1" font-family="Courier New" font-size="14.00">address (20)</text>
<polyline fill="none" stroke="black" points="993.74,-242.9 1299.97,-242.9 "/>
<text text-anchor="middle" x="1078.45" y="-226.3" font-family="Courier New" font-size="14.00">unallocated (12)</text>
<polyline fill="none" stroke="black" points="1163.16,-218.1 1163.16,-242.9 "/>
<text text-anchor="middle" x="1231.57" y="-226.3" font-family="Courier New" font-size="14.00">address (20)</text>
<polyline fill="none" stroke="black" points="993.74,-218.1 1299.97,-218.1 "/>
<text text-anchor="middle" x="1078.45" y="-201.5" font-family="Courier New" font-size="14.00">unallocated (12)</text>
<polyline fill="none" stroke="black" points="1163.16,-193.3 1163.16,-218.1 "/>
<text text-anchor="middle" x="1231.57" y="-201.5" font-family="Courier New" font-size="14.00">address (20)</text>
<polyline fill="none" stroke="black" points="993.74,-193.3 1299.97,-193.3 "/>
<text text-anchor="middle" x="1078.45" y="-176.7" font-family="Courier New" font-size="14.00">unallocated (12)</text>
<polyline fill="none" stroke="black" points="1163.16,-168.5 1163.16,-193.3 "/>
<text text-anchor="middle" x="1231.57" y="-176.7" font-family="Courier New" font-size="14.00">address (20)</text>
<polyline fill="none" stroke="black" points="993.74,-168.5 1299.97,-168.5 "/>
<text text-anchor="middle" x="1078.45" y="-151.9" font-family="Courier New" font-size="14.00">unallocated (12)</text>
<polyline fill="none" stroke="black" points="1163.16,-143.7 1163.16,-168.5 "/>
<text text-anchor="middle" x="1231.57" y="-151.9" font-family="Courier New" font-size="14.00">address (20)</text>
</g>
<!-- 4&#45;&gt;2 -->
<g id="edge2" class="edge">
<title>4:18&#45;&gt;2</title>
<path fill="none" stroke="black" d="M527.68,-230.5C649.79,-230.5 786.49,-230.5 895.9,-230.5"/>
<polygon fill="black" stroke="black" points="896.07,-234 906.07,-230.5 896.07,-227 896.07,-234"/>
</g>
<!-- 3 -->
<g id="node4" class="node">
<title>3</title>
<polygon fill="#f2f2f2" stroke="black" points="977.94,-0.5 977.94,-124.5 1228.38,-124.5 1228.38,-0.5 977.94,-0.5"/>
<text text-anchor="middle" x="1103.16" y="-107.9" font-family="Courier New" font-size="14.00">ImportantStruct &lt;&lt;Struct&gt;&gt;</text>
<polyline fill="none" stroke="black" points="977.94,-99.7 1228.38,-99.7 "/>
<text text-anchor="middle" x="1002.75" y="-83.1" font-family="Courier New" font-size="14.00">slot</text>
<polyline fill="none" stroke="black" points="977.94,-74.9 1027.55,-74.9 "/>
<text text-anchor="middle" x="1002.75" y="-58.3" font-family="Courier New" font-size="14.00">0</text>
<polyline fill="none" stroke="black" points="977.94,-50.1 1027.55,-50.1 "/>
<text text-anchor="middle" x="1002.75" y="-33.5" font-family="Courier New" font-size="14.00">1</text>
<polyline fill="none" stroke="black" points="977.94,-25.3 1027.55,-25.3 "/>
<text text-anchor="middle" x="1002.75" y="-8.7" font-family="Courier New" font-size="14.00">2</text>
<polyline fill="none" stroke="black" points="1027.55,-0.5 1027.55,-99.7 "/>
<text text-anchor="middle" x="1127.96" y="-83.1" font-family="Courier New" font-size="14.00">type: variable (bytes)</text>
<polyline fill="none" stroke="black" points="1027.55,-74.9 1228.38,-74.9 "/>
<text text-anchor="middle" x="1127.56" y="-58.3" font-family="Courier New" font-size="14.00">uint256: valueA (32)</text>
<polyline fill="none" stroke="black" points="1027.55,-50.1 1228.38,-50.1 "/>
<text text-anchor="middle" x="1127.96" y="-33.5" font-family="Courier New" font-size="14.00">uint256: bigValue (32)</text>
<polyline fill="none" stroke="black" points="1027.55,-25.3 1228.38,-25.3 "/>
<text text-anchor="middle" x="1127.56" y="-8.7" font-family="Courier New" font-size="14.00">uint256: valueB (32)</text>
</g>
<!-- 4&#45;&gt;3 -->
<g id="edge3" class="edge">
<title>4:22&#45;&gt;3</title>
<path fill="none" stroke="black" d="M527.68,-205.5C563.06,-205.5 534.83,-154.98 563.68,-134.5 681.3,-51.02 850.54,-41.58 967.76,-47.52"/>
<polygon fill="black" stroke="black" points="967.7,-51.02 977.87,-48.07 968.08,-44.03 967.7,-51.02"/>
</g>
</g>
</svg>
