<?xml version="1.0" encoding="UTF-8" standalone="no"?>
<!DOCTYPE svg PUBLIC "-//W3C//DTD SVG 1.1//EN"
 "http://www.w3.org/Graphics/SVG/1.1/DTD/svg11.dtd">
<!-- Generated by graphviz version 5.0.0 (20220707.1540)
 -->
<!-- Title: StorageDiagram Pages: 1 -->
<svg width="1961pt" height="629pt"
 viewBox="0.00 0.00 1960.67 628.80" xmlns="http://www.w3.org/2000/svg" xmlns:xlink="http://www.w3.org/1999/xlink">
<g id="graph0" class="graph" transform="scale(1 1) rotate(0) translate(4 624.8)">
<title>StorageDiagram</title>
<polygon fill="white" stroke="transparent" points="-4,4 -4,-624.8 1956.67,-624.8 1956.67,4 -4,4"/>
<!-- 6 -->
<g id="node1" class="node">
<title>6</title>
<polygon fill="#f2f2f2" stroke="black" points="0,-165.7 0,-587.3 610.09,-587.3 610.09,-165.7 0,-165.7"/>
<text text-anchor="middle" x="305.04" y="-570.7" font-family="Courier New" font-size="14.00">GasContract &lt;&lt;Contract&gt;&gt;</text>
<polyline fill="none" stroke="black" points="0,-562.5 610.09,-562.5 "/>
<text text-anchor="middle" x="29" y="-545.9" font-family="Courier New" font-size="14.00">slot</text>
<polyline fill="none" stroke="black" points="0,-537.7 58.01,-537.7 "/>
<text text-anchor="middle" x="29" y="-521.1" font-family="Courier New" font-size="14.00">0</text>
<polyline fill="none" stroke="black" points="0,-512.9 58.01,-512.9 "/>
<text text-anchor="middle" x="29" y="-496.3" font-family="Courier New" font-size="14.00">1</text>
<polyline fill="none" stroke="black" points="0,-488.1 58.01,-488.1 "/>
<text text-anchor="middle" x="29" y="-471.5" font-family="Courier New" font-size="14.00">2</text>
<polyline fill="none" stroke="black" points="0,-463.3 58.01,-463.3 "/>
<text text-anchor="middle" x="29" y="-446.7" font-family="Courier New" font-size="14.00">3</text>
<polyline fill="none" stroke="black" points="0,-438.5 58.01,-438.5 "/>
<text text-anchor="middle" x="29" y="-421.9" font-family="Courier New" font-size="14.00">4</text>
<polyline fill="none" stroke="black" points="0,-413.7 58.01,-413.7 "/>
<text text-anchor="middle" x="29" y="-397.1" font-family="Courier New" font-size="14.00">5</text>
<polyline fill="none" stroke="black" points="0,-388.9 58.01,-388.9 "/>
<text text-anchor="middle" x="29" y="-372.3" font-family="Courier New" font-size="14.00">6</text>
<polyline fill="none" stroke="black" points="0,-364.1 58.01,-364.1 "/>
<text text-anchor="middle" x="29" y="-347.5" font-family="Courier New" font-size="14.00">7</text>
<polyline fill="none" stroke="black" points="0,-339.3 58.01,-339.3 "/>
<text text-anchor="middle" x="29" y="-322.7" font-family="Courier New" font-size="14.00">8</text>
<polyline fill="none" stroke="black" points="0,-314.5 58.01,-314.5 "/>
<text text-anchor="middle" x="29" y="-297.9" font-family="Courier New" font-size="14.00">9</text>
<polyline fill="none" stroke="black" points="0,-289.7 58.01,-289.7 "/>
<text text-anchor="middle" x="29" y="-273.1" font-family="Courier New" font-size="14.00">10&#45;14</text>
<polyline fill="none" stroke="black" points="0,-264.9 58.01,-264.9 "/>
<text text-anchor="middle" x="29" y="-248.3" font-family="Courier New" font-size="14.00">15</text>
<polyline fill="none" stroke="black" points="0,-240.1 58.01,-240.1 "/>
<text text-anchor="middle" x="29" y="-223.5" font-family="Courier New" font-size="14.00">16</text>
<polyline fill="none" stroke="black" points="0,-215.3 58.01,-215.3 "/>
<text text-anchor="middle" x="29" y="-198.7" font-family="Courier New" font-size="14.00">17</text>
<polyline fill="none" stroke="black" points="0,-190.5 58.01,-190.5 "/>
<text text-anchor="middle" x="29" y="-173.9" font-family="Courier New" font-size="14.00">18</text>
<polyline fill="none" stroke="black" points="58.01,-165.7 58.01,-562.5 "/>
<text text-anchor="middle" x="334.05" y="-545.9" font-family="Courier New" font-size="14.00">type: &lt;inherited contract&gt;.variable (bytes)</text>
<polyline fill="none" stroke="black" points="58.01,-537.7 610.09,-537.7 "/>
<text text-anchor="middle" x="170.72" y="-521.1" font-family="Courier New" font-size="14.00">unallocated (12)</text>
<polyline fill="none" stroke="black" points="283.43,-512.9 283.43,-537.7 "/>
<text text-anchor="middle" x="446.55" y="-521.1" font-family="Courier New" font-size="14.00">address: Ownable._owner (20)</text>
<polyline fill="none" stroke="black" points="58.01,-512.9 610.09,-512.9 "/>
<text text-anchor="middle" x="334.02" y="-496.3" font-family="Courier New" font-size="14.00">uint256: totalSupply (32)</text>
<polyline fill="none" stroke="black" points="58.01,-488.1 610.09,-488.1 "/>
<text text-anchor="middle" x="333.63" y="-471.5" font-family="Courier New" font-size="14.00">uint256: paymentCounter (32)</text>
<polyline fill="none" stroke="black" points="58.01,-463.3 610.09,-463.3 "/>
<text text-anchor="middle" x="334.03" y="-446.7" font-family="Courier New" font-size="14.00">mapping(address=&gt;uint256): balances (32)</text>
<polyline fill="none" stroke="black" points="58.01,-438.5 610.09,-438.5 "/>
<text text-anchor="middle" x="333.72" y="-421.9" font-family="Courier New" font-size="14.00">uint256: tradePercent (32)</text>
<polyline fill="none" stroke="black" points="58.01,-413.7 610.09,-413.7 "/>
<text text-anchor="middle" x="133.22" y="-397.1" font-family="Courier New" font-size="14.00">unallocated (11)</text>
<polyline fill="none" stroke="black" points="208.43,-388.9 208.43,-413.7 "/>
<text text-anchor="middle" x="287.84" y="-397.1" font-family="Courier New" font-size="14.00">bool: isReady (1)</text>
<polyline fill="none" stroke="black" points="367.25,-388.9 367.25,-413.7 "/>
<text text-anchor="middle" x="488.67" y="-397.1" font-family="Courier New" font-size="14.00">address: contractOwner (20)</text>
<polyline fill="none" stroke="black" points="58.01,-388.9 610.09,-388.9 "/>
<text text-anchor="middle" x="333.62" y="-372.3" font-family="Courier New" font-size="14.00">uint256: tradeMode (32)</text>
<polyline fill="none" stroke="black" points="58.01,-364.1 610.09,-364.1 "/>
<text text-anchor="middle" x="333.94" y="-347.5" font-family="Courier New" font-size="14.00">mapping(address=&gt;Payment[]): payments (32)</text>
<polyline fill="none" stroke="black" points="58.01,-339.3 610.09,-339.3 "/>
<text text-anchor="middle" x="333.73" y="-322.7" font-family="Courier New" font-size="14.00">mapping(address=&gt;uint256): whitelist (32)</text>
<polyline fill="none" stroke="black" points="58.01,-314.5 610.09,-314.5 "/>
<text text-anchor="middle" x="333.73" y="-297.9" font-family="Courier New" font-size="14.00">mapping(address=&gt;bool): isAdmin (32)</text>
<polyline fill="none" stroke="black" points="58.01,-289.7 610.09,-289.7 "/>
<text text-anchor="middle" x="333.93" y="-273.1" font-family="Courier New" font-size="14.00">address[5]: administrators (160)</text>
<polyline fill="none" stroke="black" points="58.01,-264.9 610.09,-264.9 "/>
<text text-anchor="middle" x="334.03" y="-248.3" font-family="Courier New" font-size="14.00">History[]: paymentHistory (32)</text>
<polyline fill="none" stroke="black" points="58.01,-240.1 610.09,-240.1 "/>
<text text-anchor="middle" x="333.82" y="-223.5" font-family="Courier New" font-size="14.00">uint256: wasLastOdd (32)</text>
<polyline fill="none" stroke="black" points="58.01,-215.3 610.09,-215.3 "/>
<text text-anchor="middle" x="334.04" y="-198.7" font-family="Courier New" font-size="14.00">mapping(address=&gt;uint256): isOddWhitelistUser (32)</text>
<polyline fill="none" stroke="black" points="58.01,-190.5 610.09,-190.5 "/>
<text text-anchor="middle" x="334.04" y="-173.9" font-family="Courier New" font-size="14.00">mapping(address=&gt;ImportantStruct): whiteListStruct (32)</text>
</g>
<!-- 1 -->
<g id="node2" class="node">
<title>1</title>
<polygon fill="#f2f2f2" stroke="black" points="646.09,-446.7 646.09,-620.3 1507.42,-620.3 1507.42,-446.7 646.09,-446.7"/>
<text text-anchor="middle" x="1076.75" y="-603.7" font-family="Courier New" font-size="14.00">Payment &lt;&lt;Struct&gt;&gt;</text>
<polyline fill="none" stroke="black" points="646.09,-595.5 1507.42,-595.5 "/>
<text text-anchor="middle" x="670.89" y="-578.9" font-family="Courier New" font-size="14.00">slot</text>
<polyline fill="none" stroke="black" points="646.09,-570.7 695.69,-570.7 "/>
<text text-anchor="middle" x="670.89" y="-554.1" font-family="Courier New" font-size="14.00">0</text>
<polyline fill="none" stroke="black" points="646.09,-545.9 695.69,-545.9 "/>
<text text-anchor="middle" x="670.89" y="-529.3" font-family="Courier New" font-size="14.00">1</text>
<polyline fill="none" stroke="black" points="646.09,-521.1 695.69,-521.1 "/>
<text text-anchor="middle" x="670.89" y="-504.5" font-family="Courier New" font-size="14.00">2</text>
<polyline fill="none" stroke="black" points="646.09,-496.3 695.69,-496.3 "/>
<text text-anchor="middle" x="670.89" y="-479.7" font-family="Courier New" font-size="14.00">3</text>
<polyline fill="none" stroke="black" points="646.09,-471.5 695.69,-471.5 "/>
<text text-anchor="middle" x="670.89" y="-454.9" font-family="Courier New" font-size="14.00">4</text>
<polyline fill="none" stroke="black" points="695.69,-446.7 695.69,-595.5 "/>
<text text-anchor="middle" x="1101.56" y="-578.9" font-family="Courier New" font-size="14.00">type: variable (bytes)</text>
<polyline fill="none" stroke="black" points="695.69,-570.7 1507.42,-570.7 "/>
<text text-anchor="middle" x="770.91" y="-554.1" font-family="Courier New" font-size="14.00">unallocated (10)</text>
<polyline fill="none" stroke="black" points="846.12,-545.9 846.12,-570.7 "/>
<text text-anchor="middle" x="950.73" y="-554.1" font-family="Courier New" font-size="14.00">address: recipient (20)</text>
<polyline fill="none" stroke="black" points="1055.35,-545.9 1055.35,-570.7 "/>
<text text-anchor="middle" x="1155.76" y="-554.1" font-family="Courier New" font-size="14.00">bool: adminUpdated (1)</text>
<polyline fill="none" stroke="black" points="1256.18,-545.9 1256.18,-570.7 "/>
<text text-anchor="middle" x="1381.8" y="-554.1" font-family="Courier New" font-size="14.00">PaymentType: paymentType (1)</text>
<polyline fill="none" stroke="black" points="695.69,-545.9 1507.42,-545.9 "/>
<text text-anchor="middle" x="1101.31" y="-529.3" font-family="Courier New" font-size="14.00">uint256: paymentID (32)</text>
<polyline fill="none" stroke="black" points="695.69,-521.1 1507.42,-521.1 "/>
<text text-anchor="middle" x="1101.41" y="-504.5" font-family="Courier New" font-size="14.00">string: recipientName (32)</text>
<polyline fill="none" stroke="black" points="695.69,-496.3 1507.42,-496.3 "/>
<text text-anchor="middle" x="891.91" y="-479.7" font-family="Courier New" font-size="14.00">unallocated (12)</text>
<polyline fill="none" stroke="black" points="1088.12,-471.5 1088.12,-496.3 "/>
<text text-anchor="middle" x="1297.43" y="-479.7" font-family="Courier New" font-size="14.00">address: admin (20)</text>
<polyline fill="none" stroke="black" points="695.69,-471.5 1507.42,-471.5 "/>
<text text-anchor="middle" x="1101.21" y="-454.9" font-family="Courier New" font-size="14.00">uint256: amount (32)</text>
</g>
<!-- 6&#45;&gt;1 -->
<g id="edge1" class="edge">
<title>6:16&#45;&gt;1</title>
<path fill="none" stroke="black" d="M610.09,-351.5C651.12,-351.5 614.61,-410.19 646.09,-436.5 647.63,-437.79 649.18,-439.06 650.75,-440.31"/>
<polygon fill="black" stroke="black" points="648.64,-443.11 658.69,-446.46 652.92,-437.57 648.64,-443.11"/>
</g>
<!-- 2 -->
<g id="node3" class="node">
<title>2</title>
<polygon fill="#f2f2f2" stroke="black" points="917.53,-253.7 917.53,-427.3 1235.98,-427.3 1235.98,-253.7 917.53,-253.7"/>
<text text-anchor="middle" x="1076.75" y="-410.7" font-family="Courier New" font-size="14.00">address[5]: administrators &lt;&lt;Array&gt;&gt;</text>
<polyline fill="none" stroke="black" points="917.53,-402.5 1235.98,-402.5 "/>
<text text-anchor="middle" x="942.33" y="-385.9" font-family="Courier New" font-size="14.00">slot</text>
<polyline fill="none" stroke="black" points="917.53,-377.7 967.13,-377.7 "/>
<text text-anchor="middle" x="942.33" y="-361.1" font-family="Courier New" font-size="14.00">10</text>
<polyline fill="none" stroke="black" points="917.53,-352.9 967.13,-352.9 "/>
<text text-anchor="middle" x="942.33" y="-336.3" font-family="Courier New" font-size="14.00">11</text>
<polyline fill="none" stroke="black" points="917.53,-328.1 967.13,-328.1 "/>
<text text-anchor="middle" x="942.33" y="-311.5" font-family="Courier New" font-size="14.00">12</text>
<polyline fill="none" stroke="black" points="917.53,-303.3 967.13,-303.3 "/>
<text text-anchor="middle" x="942.33" y="-286.7" font-family="Courier New" font-size="14.00">13</text>
<polyline fill="none" stroke="black" points="917.53,-278.5 967.13,-278.5 "/>
<text text-anchor="middle" x="942.33" y="-261.9" font-family="Courier New" font-size="14.00">14</text>
<polyline fill="none" stroke="black" points="967.13,-253.7 967.13,-402.5 "/>
<text text-anchor="middle" x="1101.25" y="-385.9" font-family="Courier New" font-size="14.00">type: variable (bytes)</text>
<polyline fill="none" stroke="black" points="967.13,-377.7 1235.37,-377.7 "/>
<text text-anchor="middle" x="1042.34" y="-361.1" font-family="Courier New" font-size="14.00">unallocated (12)</text>
<polyline fill="none" stroke="black" points="1117.56,-352.9 1117.56,-377.7 "/>
<text text-anchor="middle" x="1176.46" y="-361.1" font-family="Courier New" font-size="14.00">address (20)</text>
<polyline fill="none" stroke="black" points="967.13,-352.9 1235.37,-352.9 "/>
<text text-anchor="middle" x="1042.34" y="-336.3" font-family="Courier New" font-size="14.00">unallocated (12)</text>
<polyline fill="none" stroke="black" points="1117.56,-328.1 1117.56,-352.9 "/>
<text text-anchor="middle" x="1176.46" y="-336.3" font-family="Courier New" font-size="14.00">address (20)</text>
<polyline fill="none" stroke="black" points="967.13,-328.1 1235.37,-328.1 "/>
<text text-anchor="middle" x="1042.34" y="-311.5" font-family="Courier New" font-size="14.00">unallocated (12)</text>
<polyline fill="none" stroke="black" points="1117.56,-303.3 1117.56,-328.1 "/>
<text text-anchor="middle" x="1176.46" y="-311.5" font-family="Courier New" font-size="14.00">address (20)</text>
<polyline fill="none" stroke="black" points="967.13,-303.3 1235.37,-303.3 "/>
<text text-anchor="middle" x="1042.34" y="-286.7" font-family="Courier New" font-size="14.00">unallocated (12)</text>
<polyline fill="none" stroke="black" points="1117.56,-278.5 1117.56,-303.3 "/>
<text text-anchor="middle" x="1176.46" y="-286.7" font-family="Courier New" font-size="14.00">address (20)</text>
<polyline fill="none" stroke="black" points="967.13,-278.5 1235.37,-278.5 "/>
<text text-anchor="middle" x="1042.34" y="-261.9" font-family="Courier New" font-size="14.00">unallocated (12)</text>
<polyline fill="none" stroke="black" points="1117.56,-253.7 1117.56,-278.5 "/>
<text text-anchor="middle" x="1176.46" y="-261.9" font-family="Courier New" font-size="14.00">address (20)</text>
</g>
<!-- 6&#45;&gt;2 -->
<g id="edge2" class="edge">
<title>6:24&#45;&gt;2</title>
<path fill="none" stroke="black" d="M610.09,-277.5C709.26,-277.5 819.25,-291.71 907.42,-306.63"/>
<polygon fill="black" stroke="black" points="907.07,-310.12 917.52,-308.35 908.25,-303.22 907.07,-310.12"/>
</g>
<!-- 4 -->
<g id="node5" class="node">
<title>4</title>
<polygon fill="#f2f2f2" stroke="black" points="791.51,-143.9 791.51,-235.1 1362,-235.1 1362,-143.9 791.51,-143.9"/>
<text text-anchor="middle" x="1076.75" y="-218.5" font-family="Courier New" font-size="14.00">History[]: paymentHistory &lt;&lt;Array&gt;&gt;</text>
<text text-anchor="middle" x="1076.75" y="-201.7" font-family="Courier New" font-size="14.00">0x98fc0aaa91a89c95afcb1d5888f8086579dc6725de1a2adf06dad42d1f9d2289</text>
<polyline fill="none" stroke="black" points="791.51,-193.5 1362,-193.5 "/>
<text text-anchor="middle" x="896.31" y="-176.9" font-family="Courier New" font-size="14.00">slot</text>
<polyline fill="none" stroke="black" points="791.51,-168.7 1001.11,-168.7 "/>
<text text-anchor="middle" x="896.31" y="-152.1" font-family="Courier New" font-size="14.00">0&#45;2</text>
<polyline fill="none" stroke="black" points="1001.11,-143.9 1001.11,-193.5 "/>
<text text-anchor="middle" x="1181.53" y="-176.9" font-family="Courier New" font-size="14.00">type: variable (bytes)</text>
<polyline fill="none" stroke="black" points="1001.11,-168.7 1361.94,-168.7 "/>
<text text-anchor="middle" x="1181.52" y="-152.1" font-family="Courier New" font-size="14.00">History (96)</text>
</g>
<!-- 6&#45;&gt;4 -->
<g id="edge3" class="edge">
<title>6:29&#45;&gt;4</title>
<path fill="none" stroke="black" d="M610.09,-252.5C626.48,-252.5 629.94,-247.32 646.09,-244.5 689.74,-236.87 736.06,-229.84 781.51,-223.54"/>
<polygon fill="black" stroke="black" points="782.07,-226.99 791.5,-222.16 781.12,-220.06 782.07,-226.99"/>
</g>
<!-- 5 -->
<g id="node6" class="node">
<title>5</title>
<polygon fill="#f2f2f2" stroke="black" points="951.53,-0.5 951.53,-124.5 1201.97,-124.5 1201.97,-0.5 951.53,-0.5"/>
<text text-anchor="middle" x="1076.75" y="-107.9" font-family="Courier New" font-size="14.00">ImportantStruct &lt;&lt;Struct&gt;&gt;</text>
<polyline fill="none" stroke="black" points="951.53,-99.7 1201.97,-99.7 "/>
<text text-anchor="middle" x="976.34" y="-83.1" font-family="Courier New" font-size="14.00">slot</text>
<polyline fill="none" stroke="black" points="951.53,-74.9 1001.14,-74.9 "/>
<text text-anchor="middle" x="976.34" y="-58.3" font-family="Courier New" font-size="14.00">0</text>
<polyline fill="none" stroke="black" points="951.53,-50.1 1001.14,-50.1 "/>
<text text-anchor="middle" x="976.34" y="-33.5" font-family="Courier New" font-size="14.00">1</text>
<polyline fill="none" stroke="black" points="951.53,-25.3 1001.14,-25.3 "/>
<text text-anchor="middle" x="976.34" y="-8.7" font-family="Courier New" font-size="14.00">2</text>
<polyline fill="none" stroke="black" points="1001.14,-0.5 1001.14,-99.7 "/>
<text text-anchor="middle" x="1101.56" y="-83.1" font-family="Courier New" font-size="14.00">type: variable (bytes)</text>
<polyline fill="none" stroke="black" points="1001.14,-74.9 1201.97,-74.9 "/>
<text text-anchor="middle" x="1101.15" y="-58.3" font-family="Courier New" font-size="14.00">uint256: valueA (32)</text>
<polyline fill="none" stroke="black" points="1001.14,-50.1 1201.97,-50.1 "/>
<text text-anchor="middle" x="1101.56" y="-33.5" font-family="Courier New" font-size="14.00">uint256: bigValue (32)</text>
<polyline fill="none" stroke="black" points="1001.14,-25.3 1201.97,-25.3 "/>
<text text-anchor="middle" x="1101.15" y="-8.7" font-family="Courier New" font-size="14.00">uint256: valueB (32)</text>
</g>
<!-- 6&#45;&gt;5 -->
<g id="edge4" class="edge">
<title>6:35&#45;&gt;5</title>
<path fill="none" stroke="black" d="M610.09,-178.5C635.36,-178.5 624.23,-147.18 646.09,-134.5 735.55,-82.62 852.02,-65.62 941.12,-61.04"/>
<polygon fill="black" stroke="black" points="941.47,-64.53 951.3,-60.56 941.14,-57.53 941.47,-64.53"/>
</g>
<!-- 3 -->
<g id="node4" class="node">
<title>3</title>
<polygon fill="#f2f2f2" stroke="black" points="1543.42,-94.5 1543.42,-218.5 1952.67,-218.5 1952.67,-94.5 1543.42,-94.5"/>
<text text-anchor="middle" x="1748.05" y="-201.9" font-family="Courier New" font-size="14.00">History &lt;&lt;Struct&gt;&gt;</text>
<polyline fill="none" stroke="black" points="1543.42,-193.7 1952.67,-193.7 "/>
<text text-anchor="middle" x="1568.22" y="-177.1" font-family="Courier New" font-size="14.00">slot</text>
<polyline fill="none" stroke="black" points="1543.42,-168.9 1593.02,-168.9 "/>
<text text-anchor="middle" x="1568.22" y="-152.3" font-family="Courier New" font-size="14.00">0</text>
<polyline fill="none" stroke="black" points="1543.42,-144.1 1593.02,-144.1 "/>
<text text-anchor="middle" x="1568.22" y="-127.5" font-family="Courier New" font-size="14.00">1</text>
<polyline fill="none" stroke="black" points="1543.42,-119.3 1593.02,-119.3 "/>
<text text-anchor="middle" x="1568.22" y="-102.7" font-family="Courier New" font-size="14.00">2</text>
<polyline fill="none" stroke="black" points="1593.02,-94.5 1593.02,-193.7 "/>
<text text-anchor="middle" x="1772.85" y="-177.1" font-family="Courier New" font-size="14.00">type: variable (bytes)</text>
<polyline fill="none" stroke="black" points="1593.02,-168.9 1952.67,-168.9 "/>
<text text-anchor="middle" x="1772.84" y="-152.3" font-family="Courier New" font-size="14.00">uint256: lastUpdate (32)</text>
<polyline fill="none" stroke="black" points="1593.02,-144.1 1952.67,-144.1 "/>
<text text-anchor="middle" x="1668.23" y="-127.5" font-family="Courier New" font-size="14.00">unallocated (12)</text>
<polyline fill="none" stroke="black" points="1743.44,-119.3 1743.44,-144.1 "/>
<text text-anchor="middle" x="1848.06" y="-127.5" font-family="Courier New" font-size="14.00">address: updatedBy (20)</text>
<polyline fill="none" stroke="black" points="1593.02,-119.3 1952.67,-119.3 "/>
<text text-anchor="middle" x="1772.54" y="-102.7" font-family="Courier New" font-size="14.00">uint256: blockNumber (32)</text>
</g>
<!-- 4&#45;&gt;3 -->
<g id="edge5" class="edge">
<title>4:25&#45;&gt;3</title>
<path fill="none" stroke="black" d="M1362.75,-156.5C1417.87,-156.5 1477.43,-156.5 1532.83,-156.5"/>
<polygon fill="black" stroke="black" points="1533.12,-160 1543.12,-156.5 1533.12,-153 1533.12,-160"/>
</g>
</g>
</svg>
