<?xml version="1.0" encoding="UTF-8" standalone="no"?>
<!DOCTYPE svg PUBLIC "-//W3C//DTD SVG 1.1//EN"
 "http://www.w3.org/Graphics/SVG/1.1/DTD/svg11.dtd">
<!-- Generated by graphviz version 5.0.0 (20220707.1540)
 -->
<!-- Title: StorageDiagram Pages: 1 -->
<svg width="775pt" height="623pt"
 viewBox="0.00 0.00 775.46 623.00" xmlns="http://www.w3.org/2000/svg" xmlns:xlink="http://www.w3.org/1999/xlink">
<g id="graph0" class="graph" transform="scale(1 1) rotate(0) translate(4 619)">
<title>StorageDiagram</title>
<polygon fill="white" stroke="transparent" points="-4,4 -4,-619 771.46,-619 771.46,4 -4,4"/>
<!-- 4 -->
<g id="node1" class="node">
<title>4</title>
<polygon fill="#f2f2f2" stroke="black" points="0,-118.5 0,-614.5 389.94,-614.5 389.94,-118.5 0,-118.5"/>
<text text-anchor="middle" x="194.97" y="-597.9" font-family="Times,serif" font-size="14.00">GasContract &lt;&lt;Contract&gt;&gt;</text>
<polyline fill="none" stroke="black" points="0,-589.7 389.94,-589.7 "/>
<text text-anchor="middle" x="24.33" y="-573.1" font-family="Times,serif" font-size="14.00">slot</text>
<polyline fill="none" stroke="black" points="0,-564.9 48.66,-564.9 "/>
<text text-anchor="middle" x="24.33" y="-548.3" font-family="Times,serif" font-size="14.00">0</text>
<polyline fill="none" stroke="black" points="0,-540.1 48.66,-540.1 "/>
<text text-anchor="middle" x="24.33" y="-523.5" font-family="Times,serif" font-size="14.00">1</text>
<polyline fill="none" stroke="black" points="0,-515.3 48.66,-515.3 "/>
<text text-anchor="middle" x="24.33" y="-498.7" font-family="Times,serif" font-size="14.00">2</text>
<polyline fill="none" stroke="black" points="0,-490.5 48.66,-490.5 "/>
<text text-anchor="middle" x="24.33" y="-473.9" font-family="Times,serif" font-size="14.00">3</text>
<polyline fill="none" stroke="black" points="0,-465.7 48.66,-465.7 "/>
<text text-anchor="middle" x="24.33" y="-449.1" font-family="Times,serif" font-size="14.00">4</text>
<polyline fill="none" stroke="black" points="0,-440.9 48.66,-440.9 "/>
<text text-anchor="middle" x="24.33" y="-424.3" font-family="Times,serif" font-size="14.00">5</text>
<polyline fill="none" stroke="black" points="0,-416.1 48.66,-416.1 "/>
<text text-anchor="middle" x="24.33" y="-399.5" font-family="Times,serif" font-size="14.00">6</text>
<polyline fill="none" stroke="black" points="0,-391.3 48.66,-391.3 "/>
<text text-anchor="middle" x="24.33" y="-374.7" font-family="Times,serif" font-size="14.00">7</text>
<polyline fill="none" stroke="black" points="0,-366.5 48.66,-366.5 "/>
<text text-anchor="middle" x="24.33" y="-349.9" font-family="Times,serif" font-size="14.00">8</text>
<polyline fill="none" stroke="black" points="0,-341.7 48.66,-341.7 "/>
<text text-anchor="middle" x="24.33" y="-325.1" font-family="Times,serif" font-size="14.00">9</text>
<polyline fill="none" stroke="black" points="0,-316.9 48.66,-316.9 "/>
<text text-anchor="middle" x="24.33" y="-300.3" font-family="Times,serif" font-size="14.00">10</text>
<polyline fill="none" stroke="black" points="0,-292.1 48.66,-292.1 "/>
<text text-anchor="middle" x="24.33" y="-275.5" font-family="Times,serif" font-size="14.00">11</text>
<polyline fill="none" stroke="black" points="0,-267.3 48.66,-267.3 "/>
<text text-anchor="middle" x="24.33" y="-250.7" font-family="Times,serif" font-size="14.00">12&#45;16</text>
<polyline fill="none" stroke="black" points="0,-242.5 48.66,-242.5 "/>
<text text-anchor="middle" x="24.33" y="-225.9" font-family="Times,serif" font-size="14.00">17</text>
<polyline fill="none" stroke="black" points="0,-217.7 48.66,-217.7 "/>
<text text-anchor="middle" x="24.33" y="-201.1" font-family="Times,serif" font-size="14.00">18</text>
<polyline fill="none" stroke="black" points="0,-192.9 48.66,-192.9 "/>
<text text-anchor="middle" x="24.33" y="-176.3" font-family="Times,serif" font-size="14.00">19</text>
<polyline fill="none" stroke="black" points="0,-168.1 48.66,-168.1 "/>
<text text-anchor="middle" x="24.33" y="-151.5" font-family="Times,serif" font-size="14.00">20</text>
<polyline fill="none" stroke="black" points="0,-143.3 48.66,-143.3 "/>
<text text-anchor="middle" x="24.33" y="-126.7" font-family="Times,serif" font-size="14.00">21</text>
<polyline fill="none" stroke="black" points="48.66,-118.5 48.66,-589.7 "/>
<text text-anchor="middle" x="219.3" y="-573.1" font-family="Times,serif" font-size="14.00">type: &lt;inherited contract&gt;.variable (bytes)</text>
<polyline fill="none" stroke="black" points="48.66,-564.9 389.94,-564.9 "/>
<text text-anchor="middle" x="113.34" y="-548.3" font-family="Times,serif" font-size="14.00">unallocated (12)</text>
<polyline fill="none" stroke="black" points="178.01,-540.1 178.01,-564.9 "/>
<text text-anchor="middle" x="283.62" y="-548.3" font-family="Times,serif" font-size="14.00">address: Ownable._owner (20)</text>
<polyline fill="none" stroke="black" points="48.66,-540.1 389.94,-540.1 "/>
<text text-anchor="middle" x="218.96" y="-523.5" font-family="Times,serif" font-size="14.00">uint256: Constants.tradeFlag (32)</text>
<polyline fill="none" stroke="black" points="48.66,-515.3 389.94,-515.3 "/>
<text text-anchor="middle" x="218.85" y="-498.7" font-family="Times,serif" font-size="14.00">uint256: Constants.basicFlag (32)</text>
<polyline fill="none" stroke="black" points="48.66,-490.5 389.94,-490.5 "/>
<text text-anchor="middle" x="218.96" y="-473.9" font-family="Times,serif" font-size="14.00">uint256: Constants.dividendFlag (32)</text>
<polyline fill="none" stroke="black" points="48.66,-465.7 389.94,-465.7 "/>
<text text-anchor="middle" x="218.94" y="-449.1" font-family="Times,serif" font-size="14.00">uint256: totalSupply (32)</text>
<polyline fill="none" stroke="black" points="48.66,-440.9 389.94,-440.9 "/>
<text text-anchor="middle" x="218.81" y="-424.3" font-family="Times,serif" font-size="14.00">uint256: paymentCounter (32)</text>
<polyline fill="none" stroke="black" points="48.66,-416.1 389.94,-416.1 "/>
<text text-anchor="middle" x="219.3" y="-399.5" font-family="Times,serif" font-size="14.00">mapping(address=&gt;uint256): balances (32)</text>
<polyline fill="none" stroke="black" points="48.66,-391.3 389.94,-391.3 "/>
<text text-anchor="middle" x="219.14" y="-374.7" font-family="Times,serif" font-size="14.00">uint256: tradePercent (32)</text>
<polyline fill="none" stroke="black" points="48.66,-366.5 389.94,-366.5 "/>
<text text-anchor="middle" x="116.84" y="-349.9" font-family="Times,serif" font-size="14.00">unallocated (12)</text>
<polyline fill="none" stroke="black" points="185.01,-341.7 185.01,-366.5 "/>
<text text-anchor="middle" x="287.2" y="-349.9" font-family="Times,serif" font-size="14.00">address: contractOwner (20)</text>
<polyline fill="none" stroke="black" points="48.66,-341.7 389.94,-341.7 "/>
<text text-anchor="middle" x="218.98" y="-325.1" font-family="Times,serif" font-size="14.00">uint256: tradeMode (32)</text>
<polyline fill="none" stroke="black" points="48.66,-316.9 389.94,-316.9 "/>
<text text-anchor="middle" x="219.3" y="-300.3" font-family="Times,serif" font-size="14.00">mapping(address=&gt;Payment[]): payments (32)</text>
<polyline fill="none" stroke="black" points="48.66,-292.1 389.94,-292.1 "/>
<text text-anchor="middle" x="218.82" y="-275.5" font-family="Times,serif" font-size="14.00">mapping(address=&gt;uint256): whitelist (32)</text>
<polyline fill="none" stroke="black" points="48.66,-267.3 389.94,-267.3 "/>
<text text-anchor="middle" x="218.97" y="-250.7" font-family="Times,serif" font-size="14.00">address[5]: administrators (160)</text>
<polyline fill="none" stroke="black" points="48.66,-242.5 389.94,-242.5 "/>
<text text-anchor="middle" x="132.34" y="-225.9" font-family="Times,serif" font-size="14.00">unallocated (31)</text>
<polyline fill="none" stroke="black" points="216.01,-217.7 216.01,-242.5 "/>
<text text-anchor="middle" x="302.61" y="-225.9" font-family="Times,serif" font-size="14.00">bool: isReady (1)</text>
<polyline fill="none" stroke="black" points="48.66,-217.7 389.94,-217.7 "/>
<text text-anchor="middle" x="219.03" y="-201.1" font-family="Times,serif" font-size="14.00">History[]: paymentHistory (32)</text>
<polyline fill="none" stroke="black" points="48.66,-192.9 389.94,-192.9 "/>
<text text-anchor="middle" x="219.15" y="-176.3" font-family="Times,serif" font-size="14.00">uint256: wasLastOdd (32)</text>
<polyline fill="none" stroke="black" points="48.66,-168.1 389.94,-168.1 "/>
<text text-anchor="middle" x="218.81" y="-151.5" font-family="Times,serif" font-size="14.00">mapping(address=&gt;uint256): isOddWhitelistUser (32)</text>
<polyline fill="none" stroke="black" points="48.66,-143.3 389.94,-143.3 "/>
<text text-anchor="middle" x="219.3" y="-126.7" font-family="Times,serif" font-size="14.00">mapping(address=&gt;ImportantStruct): whiteListStruct (32)</text>
</g>
<!-- 1 -->
<g id="node2" class="node">
<title>1</title>
<polygon fill="#f2f2f2" stroke="black" points="425.94,-286.9 425.94,-510.1 767.46,-510.1 767.46,-286.9 425.94,-286.9"/>
<text text-anchor="middle" x="596.7" y="-493.5" font-family="Times,serif" font-size="14.00">Payment &lt;&lt;Struct&gt;&gt;</text>
<polyline fill="none" stroke="black" points="425.94,-485.3 767.46,-485.3 "/>
<text text-anchor="middle" x="444.06" y="-468.7" font-family="Times,serif" font-size="14.00">slot</text>
<polyline fill="none" stroke="black" points="425.94,-460.5 462.17,-460.5 "/>
<text text-anchor="middle" x="444.06" y="-443.9" font-family="Times,serif" font-size="14.00">0</text>
<polyline fill="none" stroke="black" points="425.94,-435.7 462.17,-435.7 "/>
<text text-anchor="middle" x="444.06" y="-419.1" font-family="Times,serif" font-size="14.00">1</text>
<polyline fill="none" stroke="black" points="425.94,-410.9 462.17,-410.9 "/>
<text text-anchor="middle" x="444.06" y="-394.3" font-family="Times,serif" font-size="14.00">2</text>
<polyline fill="none" stroke="black" points="425.94,-386.1 462.17,-386.1 "/>
<text text-anchor="middle" x="444.06" y="-369.5" font-family="Times,serif" font-size="14.00">3</text>
<polyline fill="none" stroke="black" points="425.94,-361.3 462.17,-361.3 "/>
<text text-anchor="middle" x="444.06" y="-344.7" font-family="Times,serif" font-size="14.00">4</text>
<polyline fill="none" stroke="black" points="425.94,-336.5 462.17,-336.5 "/>
<text text-anchor="middle" x="444.06" y="-319.9" font-family="Times,serif" font-size="14.00">5</text>
<polyline fill="none" stroke="black" points="425.94,-311.7 462.17,-311.7 "/>
<text text-anchor="middle" x="444.06" y="-295.1" font-family="Times,serif" font-size="14.00">6</text>
<polyline fill="none" stroke="black" points="462.17,-286.9 462.17,-485.3 "/>
<text text-anchor="middle" x="614.82" y="-468.7" font-family="Times,serif" font-size="14.00">type: variable (bytes)</text>
<polyline fill="none" stroke="black" points="462.17,-460.5 767.46,-460.5 "/>
<text text-anchor="middle" x="515.85" y="-443.9" font-family="Times,serif" font-size="14.00">unallocated (31)</text>
<polyline fill="none" stroke="black" points="569.52,-435.7 569.52,-460.5 "/>
<text text-anchor="middle" x="668.49" y="-443.9" font-family="Times,serif" font-size="14.00">PaymentType: paymentType (1)</text>
<polyline fill="none" stroke="black" points="462.17,-435.7 767.46,-435.7 "/>
<text text-anchor="middle" x="614.66" y="-419.1" font-family="Times,serif" font-size="14.00">uint256: paymentID (32)</text>
<polyline fill="none" stroke="black" points="462.17,-410.9 767.46,-410.9 "/>
<text text-anchor="middle" x="527.35" y="-394.3" font-family="Times,serif" font-size="14.00">unallocated (31)</text>
<polyline fill="none" stroke="black" points="592.52,-386.1 592.52,-410.9 "/>
<text text-anchor="middle" x="679.78" y="-394.3" font-family="Times,serif" font-size="14.00">bool: adminUpdated (1)</text>
<polyline fill="none" stroke="black" points="462.17,-386.1 767.46,-386.1 "/>
<text text-anchor="middle" x="614.42" y="-369.5" font-family="Times,serif" font-size="14.00">string: recipientName (32)</text>
<polyline fill="none" stroke="black" points="462.17,-361.3 767.46,-361.3 "/>
<text text-anchor="middle" x="529.85" y="-344.7" font-family="Times,serif" font-size="14.00">unallocated (12)</text>
<polyline fill="none" stroke="black" points="597.52,-336.5 597.52,-361.3 "/>
<text text-anchor="middle" x="682.11" y="-344.7" font-family="Times,serif" font-size="14.00">address: recipient (20)</text>
<polyline fill="none" stroke="black" points="462.17,-336.5 767.46,-336.5 "/>
<text text-anchor="middle" x="533.35" y="-319.9" font-family="Times,serif" font-size="14.00">unallocated (12)</text>
<polyline fill="none" stroke="black" points="604.52,-311.7 604.52,-336.5 "/>
<text text-anchor="middle" x="685.62" y="-319.9" font-family="Times,serif" font-size="14.00">address: admin (20)</text>
<polyline fill="none" stroke="black" points="462.17,-311.7 767.46,-311.7 "/>
<text text-anchor="middle" x="614.66" y="-295.1" font-family="Times,serif" font-size="14.00">uint256: amount (32)</text>
</g>
<!-- 4&#45;&gt;1 -->
<g id="edge1" class="edge">
<title>4:18&#45;&gt;1</title>
<path fill="none" stroke="black" d="M389.94,-304.5C398.55,-304.5 407.2,-305.19 415.81,-306.45"/>
<polygon fill="black" stroke="black" points="415.44,-309.94 425.89,-308.18 416.63,-303.04 415.44,-309.94"/>
</g>
<!-- 2 -->
<g id="node3" class="node">
<title>2</title>
<polygon fill="#f2f2f2" stroke="black" points="448.49,-143.5 448.49,-267.5 744.92,-267.5 744.92,-143.5 448.49,-143.5"/>
<text text-anchor="middle" x="596.7" y="-250.9" font-family="Times,serif" font-size="14.00">History &lt;&lt;Struct&gt;&gt;</text>
<polyline fill="none" stroke="black" points="448.49,-242.7 744.92,-242.7 "/>
<text text-anchor="middle" x="466.6" y="-226.1" font-family="Times,serif" font-size="14.00">slot</text>
<polyline fill="none" stroke="black" points="448.49,-217.9 484.72,-217.9 "/>
<text text-anchor="middle" x="466.6" y="-201.3" font-family="Times,serif" font-size="14.00">0</text>
<polyline fill="none" stroke="black" points="448.49,-193.1 484.72,-193.1 "/>
<text text-anchor="middle" x="466.6" y="-176.5" font-family="Times,serif" font-size="14.00">1</text>
<polyline fill="none" stroke="black" points="448.49,-168.3 484.72,-168.3 "/>
<text text-anchor="middle" x="466.6" y="-151.7" font-family="Times,serif" font-size="14.00">2</text>
<polyline fill="none" stroke="black" points="484.72,-143.5 484.72,-242.7 "/>
<text text-anchor="middle" x="614.82" y="-226.1" font-family="Times,serif" font-size="14.00">type: variable (bytes)</text>
<polyline fill="none" stroke="black" points="484.72,-217.9 744.92,-217.9 "/>
<text text-anchor="middle" x="614.65" y="-201.3" font-family="Times,serif" font-size="14.00">uint256: lastUpdate (32)</text>
<polyline fill="none" stroke="black" points="484.72,-193.1 744.92,-193.1 "/>
<text text-anchor="middle" x="538.39" y="-176.5" font-family="Times,serif" font-size="14.00">unallocated (12)</text>
<polyline fill="none" stroke="black" points="592.06,-168.3 592.06,-193.1 "/>
<text text-anchor="middle" x="668.49" y="-176.5" font-family="Times,serif" font-size="14.00">address: updatedBy (20)</text>
<polyline fill="none" stroke="black" points="484.72,-168.3 744.92,-168.3 "/>
<text text-anchor="middle" x="614.7" y="-151.7" font-family="Times,serif" font-size="14.00">uint256: blockNumber (32)</text>
</g>
<!-- 4&#45;&gt;2 -->
<g id="edge2" class="edge">
<title>4:25&#45;&gt;2</title>
<path fill="none" stroke="black" d="M389.94,-205.5C405.62,-205.5 421.97,-205.5 438.3,-205.5"/>
<polygon fill="black" stroke="black" points="438.46,-209 448.46,-205.5 438.46,-202 438.46,-209"/>
</g>
<!-- 3 -->
<g id="node4" class="node">
<title>3</title>
<polygon fill="#f2f2f2" stroke="black" points="506.44,-0.5 506.44,-124.5 686.97,-124.5 686.97,-0.5 506.44,-0.5"/>
<text text-anchor="middle" x="596.7" y="-107.9" font-family="Times,serif" font-size="14.00">ImportantStruct &lt;&lt;Struct&gt;&gt;</text>
<polyline fill="none" stroke="black" points="506.44,-99.7 686.97,-99.7 "/>
<text text-anchor="middle" x="524.55" y="-83.1" font-family="Times,serif" font-size="14.00">slot</text>
<polyline fill="none" stroke="black" points="506.44,-74.9 542.66,-74.9 "/>
<text text-anchor="middle" x="524.55" y="-58.3" font-family="Times,serif" font-size="14.00">0</text>
<polyline fill="none" stroke="black" points="506.44,-50.1 542.66,-50.1 "/>
<text text-anchor="middle" x="524.55" y="-33.5" font-family="Times,serif" font-size="14.00">1</text>
<polyline fill="none" stroke="black" points="506.44,-25.3 542.66,-25.3 "/>
<text text-anchor="middle" x="524.55" y="-8.7" font-family="Times,serif" font-size="14.00">2</text>
<polyline fill="none" stroke="black" points="542.66,-0.5 542.66,-99.7 "/>
<text text-anchor="middle" x="614.82" y="-83.1" font-family="Times,serif" font-size="14.00">type: variable (bytes)</text>
<polyline fill="none" stroke="black" points="542.66,-74.9 686.97,-74.9 "/>
<text text-anchor="middle" x="614.37" y="-58.3" font-family="Times,serif" font-size="14.00">uint256: valueA (32)</text>
<polyline fill="none" stroke="black" points="542.66,-50.1 686.97,-50.1 "/>
<text text-anchor="middle" x="614.82" y="-33.5" font-family="Times,serif" font-size="14.00">uint256: bigValue (32)</text>
<polyline fill="none" stroke="black" points="542.66,-25.3 686.97,-25.3 "/>
<text text-anchor="middle" x="614.49" y="-8.7" font-family="Times,serif" font-size="14.00">uint256: valueB (32)</text>
</g>
<!-- 4&#45;&gt;3 -->
<g id="edge3" class="edge">
<title>4:31&#45;&gt;3</title>
<path fill="none" stroke="black" d="M389.94,-130.5C425.81,-130.5 463.5,-121.07 496.68,-109.23"/>
<polygon fill="black" stroke="black" points="498.2,-112.4 506.37,-105.66 495.78,-105.83 498.2,-112.4"/>
</g>
</g>
</svg>
